<?xml version="1.0" encoding="UTF-8" standalone="no"?>
<svg width="512" height="512" viewBox="0 0 512 512" version="1.1" id="svg1" xml:space="preserve" xmlns="http://www.w3.org/2000/svg"
    xmlns:svg="http://www.w3.org/2000/svg"><defs
   id="defs1" />
    <path
        d="m 274.92857,355.18572 q 2.77619,0.75714 6.43572,0.63095 3.65952,-0.12619 6.18333,-1.13572 L 362,326.66667 q 0,-8.58095 -6.05714,-14.38572 -6.05715,-5.80476 -14.13334,-5.80476 h -69.15238 q -0.75714,0 -1.76666,-0.12619 -1.00953,-0.12619 -1.51429,-0.37857 l -14.89048,-5.3 q -2.01904,-0.75714 -2.77619,-2.52381 -0.75714,-1.76667 -0.25238,-3.78571 0.50476,-1.76667 2.52381,-2.77619 2.01905,-1.00953 4.0381,-0.25239 l 11.35714,4.29048 q 1.00952,0.50476 1.64048,0.63095 0.63095,0.12619 1.89285,0.12619 h 26.5 q 4.79524,0 8.45477,-3.28095 3.65952,-3.28095 3.65952,-8.58095 0,-3.53333 -2.14524,-6.81429 -2.14524,-3.28095 -5.67857,-4.54285 l -69.90952,-25.99524 q -1.76667,-0.50476 -3.53334,-0.88334 -1.76666,-0.37857 -3.53333,-0.37857 h -16.15238 v 91.10953 z M 150,336.76191 q 0,8.32857 5.93095,14.25952 5.93095,5.93095 14.25953,5.93095 8.32857,0 14.25952,-5.93095 5.93095,-5.93095 5.93095,-14.25952 v -70.66667 q 0,-8.32857 -5.93095,-14.25952 -5.93095,-5.93096 -14.25952,-5.93096 -8.32858,0 -14.25953,5.93096 Q 150,257.76667 150,266.09524 Z m 151.42857,-78.74286 q -3.78571,0 -7.44524,-1.3881 -3.65952,-1.38809 -6.68809,-4.16428 l -27.76191,-27.25715 q -7.82381,-7.57142 -13.25,-16.78333 -5.42619,-9.2119 -5.42619,-20.06428 0,-13.88096 9.71667,-23.59762 9.71667,-9.71667 23.59762,-9.71667 8.07619,0 15.14286,3.40714 7.06666,3.40715 12.11428,9.21191 5.04762,-5.80476 12.11429,-9.21191 7.06666,-3.40714 15.14285,-3.40714 13.88096,0 23.59762,9.71667 Q 362,174.48095 362,188.36191 q 0,10.85238 -5.3,20.06428 -5.3,9.21191 -13.12381,16.78333 l -28.01429,27.25715 q -3.02857,2.77619 -6.68809,4.16428 -3.65952,1.3881 -7.44524,1.3881 z"
        id="path1" style="fill:#ffffff;stroke-width:0.252381" /></svg>
